<?xml version="1.0" encoding="utf-8"?>
<!-- Generator: Adobe Illustrator 25.3.1, SVG Export Plug-In . SVG Version: 6.00 Build 0)  -->
<svg version="1.1" id="Layer_1" xmlns="http://www.w3.org/2000/svg" xmlns:xlink="http://www.w3.org/1999/xlink" x="0px" y="0px"
	 viewBox="0 0 28.4 28" style="enable-background:new 0 0 28.4 28;" xml:space="preserve">
<style type="text/css">
	.st0{fill:#FFFFFF;}
</style>
<g>
	<g>
		<path class="st0" d="M25.4,11.6c-0.4,1.9-1.5,4-3,6.1c-0.7,1-1.6,2-2.5,3c-2,2.1-4.2,3.6-6.2,4.6c3.4,0,6.5-1.5,8.7-3.9
			C24.7,18.8,26.1,15.3,25.4,11.6z"/>
		<path class="st0" d="M22.5,13.9c2-3,3.5-6,4-8.5c0-0.5,0.1-1,0.1-1.4V3.9c0-1.1-0.4-2-1.4-2.5c-0.6-0.2-1.6-0.1-2.6,0.2
			c-0.9,0.2-1.9,0.7-2.9,1.4C14.9,0.1,8.5,1.2,4.9,5.5c-3.2,3.4-4,8.7-2.1,12.7l0,0c-0.7-1.9-0.9-4.1-0.4-6.2
			c0.1-0.4,0.2-0.7,0.4-1.2c0,0,0-0.1,0-0.2c0.1-0.2,0.2-0.4,0.2-0.6c1.2-2.6,3.4-4.1,5.1-3.4c1.6,0.7,2,3.4,0.7,6.2
			c-0.4,0.7-1.1,2.2-2.1,4c-2.4,4.1-4.4,9.4-1,10.1C6.9,26.9,8,26.5,9.3,26C13.9,24.1,19,19.2,22.5,13.9z M22.5,2.6
			C24.6,2,25.3,3.4,23.7,7c-0.4-0.6-0.7-1.1-1.2-1.6c-0.6-0.6-1.4-1.2-2.1-1.9C21.1,3.1,21.8,2.7,22.5,2.6z"/>
	</g>
</g>
</svg>
